 <svg
      className={className}
      version="1.0"
      xmlns="http://www.w3.org/2000/svg"
      width="60.000000pt"
      height="60.000000pt"
      viewBox="0 0 60.000000 60.000000"
      preserveAspectRatio="xMidYMid meet"
    >
      <g
        transform="translate(0.000000,60.000000) scale(0.100000,-0.100000)"
        fill="#000000"
        stroke="none"
      >
        <path
          d="M203 582 c-251 -90 -272 -432 -35 -549 81 -40 183 -40 264 0 107 53
            163 144 163 267 0 85 -21 142 -74 203 -72 81 -213 117 -318 79z m115 -207 c4
            -27 -148 -178 -174 -173 -41 8 -27 40 53 120 80 80 115 96 121 53z m140 0 c4
            -27 -148 -178 -174 -173 -41 8 -27 40 53 120 80 80 115 96 121 53z m-3 -145
            c0 -20 -5 -25 -25 -25 -20 0 -26 6 -28 28 -3 26 -1 28 25 25 22 -2 28 -8 28
            -28z"
        />
      </g>
    </svg>