<svg width="190px" height="30px" viewBox="0 0 190 30" version="1.1" xmlns="http://www.w3.org/2000/svg" xmlns:xlink="http://www.w3.org/1999/xlink"><title>Mediasoft logo</title> <g id="Symbols" stroke="none" stroke-width="1" fill="none" fill-rule="evenodd"> <g id="logo--white" fill="#0A006F"> <g id="m-icon" transform="translate(0.000144, 0.145944)"> <path d="M48.5170166,21.580068 C50.3751133,23.4387387 50.3751133,26.4517598 48.5170166,28.3092825 C46.6589199,30.1673792 43.6458988,30.1673792 41.7883761,28.3092825 C39.9297054,26.4517598 39.9297054,23.4387387 41.7883761,21.580068 C43.6458988,19.7225453 46.6589199,19.7225453 48.5170166,21.580068" id="circle"></path> <path d="M48.4682251,8.12278701 L28.2817296,28.3092825 C26.4236329,30.1673792 23.4106118,30.1673792 21.5525151,28.3092825 C19.6944184,26.4511858 19.6944184,23.4387387 21.5525151,21.580068 L41.7395846,1.39357251 C43.5976813,-0.464524169 46.6101284,-0.464524169 48.4682251,1.39357251 C50.3263218,3.2522432 50.3263218,6.26469033 48.4682251,8.12278701" id="right-stripe"></path> <path d="M28.3092825,8.12278701 L8.12221299,28.3092825 C6.26411631,30.1673792 3.25166918,30.1673792 1.39357251,28.3092825 C-0.464524169,26.4511858 -0.464524169,23.4387387 1.39357251,21.580068 L21.580068,1.39357251 C23.4381647,-0.464524169 26.4506118,-0.464524169 28.3092825,1.39357251 C30.1673792,3.2522432 30.1673792,6.26469033 28.3092825,8.12278701" id="left-stripe"></path> </g> <g id="full--name"> <polyline id="t" points="189.609668 17.5219033 186.422719 17.5219033 186.422719 29.6532024 183.465952 29.6532024 183.465952 17.5219033 180.853021 17.5219033 180.853021 15.0530514 183.465952 15.0530514 183.465952 11.3626888 186.422719 11.3626888 186.422719 15.0530514 189.609668 15.0530514 189.609668 17.5219033"></polyline> <path d="M177.203414,13.6329305 L177.203414,15.0530514 L180.107372,15.0530514 L180.107372,17.5219033 L177.203414,17.5219033 L177.203414,29.6532024 L174.275347,29.6532024 L174.275347,17.5219033 L172.237009,17.5219033 L172.237009,15.0530514 L174.275347,15.0530514 L174.275347,13.6329305 C174.275347,11.2214804 176.170181,9.52697885 178.86864,9.52697885 C179.184924,9.52697885 179.615438,9.55625378 179.98855,9.6423565 L179.98855,12.2265861 C179.615438,12.0830816 179.213051,12.0251057 178.897915,12.0251057 C177.920937,12.0251057 177.203414,12.6570997 177.203414,13.6329305" id="f"></path> <path d="M159.595408,22.3712085 C159.595408,25.1563444 161.489668,27.137281 164.102024,27.137281 C166.743656,27.137281 168.638489,25.1563444 168.638489,22.3712085 C168.638489,19.6153474 166.743656,17.60571 164.102024,17.60571 C161.489668,17.60571 159.595408,19.6153474 159.595408,22.3712085 Z M171.652659,22.3712085 C171.652659,26.6206647 168.494985,29.6922356 164.131299,29.6922356 C159.767039,29.6922356 156.580665,26.6206647 156.580665,22.3712085 C156.580665,18.1223263 159.767039,15.0501813 164.131299,15.0501813 C168.494985,15.0501813 171.652659,18.1223263 171.652659,22.3712085 L171.652659,22.3712085 Z" id="o"></path> <path d="M154.614653,19.2382175 L151.834683,19.2382175 C151.776707,17.9644713 150.647613,17.0954079 148.996737,17.0954079 C147.491088,17.0954079 146.390695,17.8485196 146.390695,18.9202115 C146.390695,20.3971601 147.693716,20.6284894 149.344018,20.9470695 C151.37145,21.3230514 154.961934,21.9320846 154.961934,25.3486405 C154.961934,27.9259819 152.529819,29.6922356 149.112689,29.6922356 C145.666284,29.6922356 143.234169,27.8685801 143.204894,25.2332628 L146.10139,25.2332628 C146.158792,26.5942598 147.433112,27.4914502 149.199366,27.4914502 C150.850242,27.4914502 152.037885,26.7096375 152.037885,25.522568 C152.037885,24.0456193 150.618338,23.813716 148.996737,23.5244109 C146.853353,23.2058308 143.466073,22.5686707 143.466073,19.2095166 C143.466073,16.6321752 145.724834,14.9238973 149.054713,14.9238973 C152.297915,14.9238973 154.614653,16.6901511 154.614653,19.2382175" id="s"></path> <path d="M133.896042,27.0586405 C131.269335,27.0586405 129.140302,24.9296073 129.140302,22.3029003 C129.140302,19.6767674 131.269335,17.5471601 133.896042,17.5471601 C136.522749,17.5471601 138.651782,19.6767674 138.651782,22.3029003 C138.651782,24.9296073 136.522749,27.0586405 133.896042,27.0586405 Z M141.265861,22.2437764 C141.265861,22.2386103 141.265861,22.2340181 141.265861,22.228852 L141.265861,14.9227492 L138.338369,14.9227492 L138.338369,16.4203625 C137.103082,15.485861 135.564139,14.9313595 133.896042,14.9313595 C129.824532,14.9313595 126.524502,18.2319637 126.524502,22.3029003 C126.524502,26.3744109 129.824532,29.6744411 133.896042,29.6744411 C135.566435,29.6744411 137.106526,29.1182175 138.342961,28.1814199 L138.342961,29.6744411 L141.267583,29.6744411 L141.267583,22.2437764 L141.265861,22.2437764 L141.265861,22.2437764 Z" id="a"></path> <g id="i" transform="translate(121.753837, 11.476344)"> <polygon id="Fill-18" points="7.81597009e-14 18.1567674 2.92806647 18.1567674 2.92806647 4.88489426 7.81597009e-14 4.88489426"></polygon> <polygon id="Fill-19" points="0.0166465257 2.92749245 2.94471299 2.92749245 2.94471299 -1.15463195e-13 0.0166465257 -1.15463195e-13"></polygon> </g> <path d="M112.069003,27.073565 C109.438852,27.073565 107.307523,24.9416616 107.307523,22.3120846 C107.307523,19.6825076 109.438852,17.5506042 112.069003,17.5506042 C114.69858,17.5506042 116.830483,19.6825076 116.830483,22.3120846 C116.830483,24.9416616 114.69858,27.073565 112.069003,27.073565 Z M119.449154,22.2983082 L119.449154,11.4901208 L116.521088,11.4901208 L116.521088,16.4266767 C115.282931,15.4887311 113.741118,14.9313595 112.069003,14.9313595 C107.992326,14.9313595 104.688278,18.2359819 104.688278,22.3120846 C104.688278,26.3876133 107.992326,29.6922356 112.069003,29.6922356 C113.74284,29.6922356 115.285801,29.1354381 116.523384,28.1957704 L116.523384,29.6256495 L119.450876,29.6256495 L119.450876,22.2983082 L119.449154,22.2983082 L119.449154,22.2983082 Z" id="d"></path> <path d="M95.696858,17.5506042 C97.8069486,17.5506042 99.592719,18.9242296 100.217825,20.8242296 L91.1758912,20.8242296 C91.800997,18.9242296 93.5873414,17.5506042 95.696858,17.5506042 Z M101.631631,23.2052568 L103.021903,23.2052568 C103.056918,22.9119335 103.077583,22.6145921 103.077583,22.3120846 C103.077583,18.2359819 99.7735347,14.9313595 95.696858,14.9313595 C91.6207553,14.9313595 88.3167069,18.2359819 88.3167069,22.3120846 C88.3167069,26.3876133 91.6207553,29.6922356 95.696858,29.6922356 C99.1358006,29.6922356 102.025982,27.3404834 102.844532,24.1575529 L100.087523,24.1575529 C99.3665559,25.870423 97.6726284,27.073565 95.696858,27.073565 C93.3726586,27.073565 91.4405136,25.4071903 91.0220544,23.2052568 L101.631631,23.2052568 L101.631631,23.2052568 Z" id="e"></path> <path d="M86.5596375,20.9034441 C86.5550453,17.6091541 83.883565,14.9399698 80.5881269,14.9399698 C78.7971903,14.9399698 77.1905136,15.7286707 76.095861,16.9771601 C75.0017825,15.7286707 73.3951057,14.9399698 71.6041692,14.9399698 C68.3087311,14.9399698 65.6372508,17.6091541 65.6326586,20.9034441 L65.6412689,20.9034441 L65.6412689,29.6922356 L68.6244411,29.6922356 L68.6244411,20.9034441 L68.6095166,20.9034441 C68.6146828,19.253142 69.9532931,17.9174018 71.6041692,17.9174018 C73.2550453,17.9174018 74.5907855,19.2416616 74.5953776,20.8913897 L74.6148943,20.9034441 L74.6148943,29.6922356 L77.5974924,29.6922356 L77.5974924,20.9034441 L77.5934743,20.9034441 C77.5980665,19.253142 78.9372508,17.9174018 80.5881269,17.9174018 C82.239003,17.9174018 83.5776133,19.253142 83.5822054,20.9034441 L83.5885196,20.9034441 L83.5885196,29.6922356 L86.5711178,29.6922356 L86.5711178,20.9034441 L86.5596375,20.9034441" id="m"></path> </g> </g> </g></svg>